# xmcd
#
# Track frame offsets: 
#        150
#        22035
#        40950
#        60957
#        83202
#        128092
#
# Disc length: 2302 seconds
#
# Revision: 3
# Processed by: cddbd v1.5.2PL0 Copyright (c) Steve Scherf et al.
# Submitted via: ExactAudioCopy v0.95a5
#
DISCID=4408fc06
DTITLE=Beefeaters - Meet You There
DYEAR=1969
DGENRE=Bluesrock
TTITLE0=I´ll Meet You There
TTITLE1=You Changed My Way Of Living
TTITLE2=Night Train
TTITLE3=Now I Know
TTITLE4=Serenade To A Cuckoo
TTITLE5=Stormy Monday
EXTD=
EXTT0=
EXTT1=
EXTT2=
EXTT3=
EXTT4=
EXTT5=
PLAYORDER=
